# xmcd
#
# Track frame offsets:
#	150
#	20748
#	43582
#	62411
#	83058
#	102674
#	128549
#	161567
#	179734
#	202582
#	219544
#	240006
#	262865
#	281903
#	302355
#	328373
#
# Disc length: 4601 seconds
#
# Revision: 0
# Processed by: cddbd v1.5.2PL0 Copyright (c) Steve Scherf et al.
# Submitted via: EasyCDDAExtractor 2010.6.0.0
#
DISCID=d711f710
DTITLE=Various Artist - Promessas
DYEAR=1900
DGENRE=
TTITLE0=Raquel De Paula - A Hora Chegou
TTITLE1=Raquel De Paula - Perfeito Louvor
TTITLE2=Raquel De Paula - Aula De Adoracao
TTITLE3=Raquel De Paula - Deus Cuida De Voce
TTITLE4=Raquel De Paula - Filho
TTITLE5=Raquel De Paula - Promessas
TTITLE6=Raquel De Paula - A Ti A Honra
TTITLE7=Raquel De Paula - Cumprindo Promessas
TTITLE8=Raquel De Paula - So Deus
TTITLE9=Raquel De Paula (Part. Esp. Ana Carolina) - Ziper Na Boca
TTITLE10=Raquel De Paula - A Hora Chegou (Pb)
TTITLE11=Raquel De Paula - Perfeito Louvor (Pb)
TTITLE12=Raquel De Paula - Aula De Adoracao (Pb)
TTITLE13=Raquel De Paula - Deus Cuida De Voce (Pb)
TTITLE14=Raquel De Paula - Filho (Pb)
TTITLE15=Raquel De Paula - Promessas (Pb)
EXTD=
EXTT0=
EXTT1=
EXTT2=
EXTT3=
EXTT4=
EXTT5=
EXTT6=
EXTT7=
EXTT8=
EXTT9=
EXTT10=
EXTT11=
EXTT12=
EXTT13=
EXTT14=
EXTT15=
PLAYORDER=
